<?xml version="1.0" encoding="UTF-8"?>
<svg height="600" width="800" xmlns="http://www.w3.org/2000/svg" xmlns:xlink="http://www.w3.org/1999/xlink">
    <g id="Notes" font-family="'LucidaGrande', 'Lucida Grande', sans-serif" font-size="13">
        <rect fill="white" height="600.0" width="800.0" x="0.0" y="0.0" />
        <g font-size="13">
            <text x="18.0" y="176.0">Small</text>
            <text x="18.0" y="376.0">Medium</text>
            <text x="18.0" y="576.0">Large</text>
        </g>
        <g font-size="9">
            <text x="250.0" y="30.0">Ultralight</text>
            <text x="450.0" y="30.0">Regular</text>
            <text x="650.0" y="30.0">Black</text>
            <text id="template-version" fill="#505050" text-anchor="end" x="785.0" y="575.0">Template v.3.0</text>
            <a href="https://wangchujiang.com/#/app">
                <text fill="#505050" text-anchor="end" x="785.0" y="590.0">https://wangchujiang.com/#/app</text>
            </a>
        </g>
    </g>
    <g id="Guides" stroke="rgb(39, 170, 225)" stroke-width="0.5">
        <path id="Capline-S" d="M18,76 l800,0" />
        <path id="H-reference" d="M85,145.755 L87.685,145.755 L113.369,79.287 L114.052,79.287 L114.052,76 L112.148,76 L85,145.755 Z M95.693,121.536 L130.996,121.536 L130.263,119.313 L96.474,119.313 L95.693,121.536 Z M139.15,145.755 L141.787,145.755 L114.638,76 L113.466,76 L113.466,79.287 L139.15,145.755 Z" stroke="none" />
        <path id="Baseline-S" d="M18,146 l800,0" />
        <path id="left-margin-Ultralight-S" d="M213.549,56 l0,110" />
        <path id="right-margin-Ultralight-S" d="M316.451,56 l0,110" />
        <path id="left-margin-Regular-S" d="M413.549,56 l0,110" />
        <path id="right-margin-Regular-S" d="M516.451,56 l0,110" />
        <path id="left-margin-Black-S" d="M613.549,56 l0,110" />
        <path id="right-margin-Black-S" d="M716.451,56 l0,110" />
        <path id="Capline-M" d="M18,276 l800,0" />
        <path id="Baseline-M" d="M18,346 l800,0" />
        <path id="Capline-L" d="M18,476 l800,0" />
        <path id="Baseline-L" d="M18,546 l800,0" />
    </g>
    <g id="Symbols">
        <g id="Ultralight-S">
            <path d="M278.039,91.703 L274.335,98.12 C282.958,109.227 284.058,120.353 277.641,131.467 C273.64,138.403 267.776,142.89 260.051,144.948 C252.345,147.013 245.018,146.035 238.095,142.04 C231.192,138.059 226.699,132.216 224.627,124.503 C222.542,116.784 223.48,109.497 227.447,102.628 C233.702,91.791 243.904,87.162 258.033,88.721 L261.738,82.304 C263.796,82.392 266.09,82.925 268.633,83.876 L269.2,82.891 C271.069,79.652 273.701,77.513 277.095,76.521 C280.495,75.516 283.653,76.002 286.777,77.662 C299.064,84.18 288.552,96.636 298.005,102.938 C299.246,103.761 301.196,104.112 303.693,104.22 C304.057,104.22 304.496,104.362 304.961,104.632 C306.412,105.468 306.803,106.467 306.135,107.628 C305.427,108.856 303.942,109.456 301.675,109.395 C299.415,109.362 297.182,108.694 294.982,107.425 C283.842,100.995 292.587,88.464 283.896,82.446 C280.009,79.753 276.325,81.339 273.309,86.568 C275.111,88.208 276.683,89.915 278.039,91.703 L278.039,91.703 Z" />
        </g>
        <g id="Regular-S">
            <path d="M478.039,91.703 L474.335,98.12 C482.958,109.227 484.058,120.353 477.641,131.467 C473.64,138.403 467.776,142.89 460.051,144.948 C452.345,147.013 445.018,146.035 438.095,142.04 C431.192,138.059 426.699,132.216 424.627,124.503 C422.542,116.784 423.48,109.497 427.447,102.628 C433.702,91.791 443.904,87.162 458.033,88.721 L461.738,82.304 C463.796,82.392 466.09,82.925 468.633,83.876 L469.2,82.891 C471.069,79.652 473.701,77.513 477.095,76.521 C480.495,75.516 483.653,76.002 486.777,77.662 C499.064,84.18 488.552,96.636 498.005,102.938 C499.246,103.761 501.196,104.112 503.693,104.22 C504.057,104.22 504.496,104.362 504.961,104.632 C506.412,105.468 506.803,106.467 506.135,107.628 C505.427,108.856 503.942,109.456 501.675,109.395 C499.415,109.362 497.182,108.694 494.982,107.425 C483.842,100.995 492.587,88.464 483.896,82.446 C480.009,79.753 476.325,81.339 473.309,86.568 C475.111,88.208 476.683,89.915 478.039,91.703 L478.039,91.703 Z" />
        </g>
        <g id="Black-S">
            <path d="M678.039,91.703 L674.335,98.12 C682.958,109.227 684.058,120.353 677.641,131.467 C673.64,138.403 667.776,142.89 660.051,144.948 C652.345,147.013 645.018,146.035 638.095,142.04 C631.192,138.059 626.698,132.216 624.627,124.503 C622.542,116.784 623.48,109.497 627.447,102.628 C633.702,91.791 643.904,87.162 658.033,88.721 L661.738,82.304 C663.796,82.392 666.09,82.925 668.633,83.876 L669.2,82.891 C671.069,79.652 673.701,77.513 677.095,76.521 C680.495,75.516 683.653,76.002 686.777,77.662 C699.064,84.18 688.552,96.636 698.005,102.938 C699.246,103.761 701.196,104.112 703.693,104.22 C704.057,104.22 704.496,104.362 704.961,104.632 C706.412,105.468 706.803,106.467 706.135,107.628 C705.427,108.856 703.942,109.456 701.675,109.395 C699.415,109.362 697.182,108.694 694.982,107.425 C683.842,100.995 692.587,88.464 683.896,82.446 C680.009,79.753 676.325,81.339 673.309,86.568 C675.111,88.208 676.683,89.915 678.039,91.703 L678.039,91.703 Z" />
        </g>
    </g>
</svg>